<?xml version="1.0" standalone="no"?>
<!DOCTYPE svg PUBLIC "-//W3C//DTD SVG 20010904//EN"
 "http://www.w3.org/TR/2001/REC-SVG-20010904/DTD/svg10.dtd">
<svg version="1.0" xmlns="http://www.w3.org/2000/svg"
 width="305.000000pt" height="305.000000pt" viewBox="0 0 305.000000 305.000000"
 preserveAspectRatio="xMidYMid meet">
<metadata>
Created by potrace 1.14, written by Peter Selinger 2001-2017
</metadata>
<g transform="translate(0.000000,305.000000) scale(0.100000,-0.100000)"
fill="#000000" stroke="none">
<path d="M1135 2963 c-11 -8 -44 -26 -73 -40 -43 -20 -55 -23 -68 -12 -9 7
-14 8 -12 2 2 -6 0 -12 -4 -12 -4 -1 -20 -14 -36 -29 -15 -15 -41 -36 -57 -47
-30 -20 -139 -126 -140 -135 -2 -20 -31 -52 -58 -64 -46 -21 -59 -34 -101
-100 -31 -48 -37 -65 -32 -92 4 -18 2 -35 -3 -38 -11 -7 -12 -134 0 -141 4 -3
5 -14 2 -25 -3 -11 0 -26 6 -33 6 -8 9 -16 6 -19 -8 -8 24 -180 40 -214 8 -16
17 -50 20 -75 9 -71 28 -150 37 -155 13 -8 9 -54 -4 -54 -7 0 -30 4 -50 9 -22
5 -38 5 -38 0 0 -5 -6 -9 -13 -9 -13 0 -40 -36 -43 -60 -2 -8 -11 -20 -20 -27
-10 -7 -12 -13 -6 -13 10 0 11 -26 2 -50 -2 -3 -1 -9 0 -15 2 -5 4 -28 6 -50
4 -62 18 -144 24 -152 2 -2 3 -6 5 -10 2 -9 6 -19 47 -120 28 -67 60 -108 112
-138 20 -12 69 -162 54 -167 -6 -2 -3 -16 6 -33 19 -37 66 -144 66 -151 0 -3
14 -25 30 -49 16 -24 30 -48 30 -53 0 -6 5 -12 10 -14 6 -2 12 -12 14 -23 5
-26 -46 -47 -154 -65 -88 -14 -166 -37 -197 -56 -34 -22 -158 -40 -167 -25 -4
6 -18 5 -39 -3 -18 -7 -43 -10 -57 -6 -14 4 -33 3 -43 -2 -9 -5 -22 -6 -27 -3
-5 3 -11 1 -15 -4 -3 -6 -12 -8 -19 -5 -7 3 -21 -2 -30 -11 -9 -9 -16 -12 -16
-6 0 16 -26 13 -44 -5 -9 -8 -32 -16 -51 -17 l-35 -2 0 -137 0 -138 1525 0
1525 0 0 44 0 44 -47 1 c-60 0 -170 9 -203 16 -14 2 -38 8 -55 11 -16 4 -38
13 -47 22 -10 8 -18 12 -18 8 0 -3 -17 2 -37 13 -21 10 -64 26 -95 35 -31 9
-63 22 -70 29 -20 20 -88 59 -88 52 0 -4 -7 -2 -15 5 -9 7 -28 14 -43 16 -15
1 -27 3 -27 4 0 1 -16 3 -34 6 -19 2 -38 9 -42 15 -3 6 -8 10 -10 8 -8 -5
-113 34 -146 54 -64 37 -63 57 5 192 44 86 81 183 87 228 2 15 7 32 10 38 4 5
9 29 11 52 2 23 6 51 9 62 2 11 7 53 11 93 5 64 10 78 35 102 26 25 65 117 54
129 -3 2 -1 9 4 15 6 6 12 25 15 41 2 17 5 30 6 30 3 0 8 28 14 70 2 17 5 30
6 30 1 0 3 40 6 89 3 71 0 97 -15 131 -31 69 -89 113 -123 92 -12 -8 -20 -7
-30 1 -11 9 -14 44 -12 169 1 87 5 176 8 198 4 22 8 100 9 173 l3 133 -29 22
c-57 43 -60 48 -41 62 16 11 11 19 -47 77 -35 36 -74 69 -86 72 -13 4 -23 11
-23 16 0 4 -9 10 -21 13 -12 3 -18 10 -15 15 3 5 -13 12 -36 15 -22 3 -44 11
-49 18 -4 7 -18 14 -31 16 -13 2 -28 10 -34 18 -6 8 -16 15 -22 15 -6 0 -55
21 -109 48 l-98 47 -153 3 c-85 2 -166 -1 -181 -6 -15 -5 -34 -6 -42 -2 -8 5
-22 2 -34 -7z"/>
<path d="M545 1880 c3 -5 10 -10 16 -10 5 0 9 5 9 10 0 6 -7 10 -16 10 -8 0
-12 -4 -9 -10z"/>
</g>
</svg>
